# xmcd
#
# Track frame offsets: 
#        150
#        21613
#        39881
#        54884
#        62666
#        81091
#        84670
#        103820
#        119280
#        121512
#        138012
#        159523
#        178916
#        207210
#
# Disc length: 2789 seconds
#
# Revision: 1
# Processed by: cddbd v1.5.2PL0 Copyright (c) Steve Scherf et al.
# Submitted via: ExactAudioCopy v1.0b3
#
DISCID=b10ae30e
DTITLE=Gilles Peterson - Presents: Havana Cultura The Search Continues
DTITLE=[CD1) Gilles Peterson's Havana Cultura Band
DYEAR=2011
DGENRE=Latin
TTITLE0=Orisa feat. Dreiser and Sexto Sentindo
TTITLE1=La Mulata Abusadora feat. Telmary and Elain Morales
TTITLE2=Malecon Habanero feat. Los Aldeanos and Silvito El Libre
TTITLE3=Vida Interlude
TTITLE4=Check La Rima feat. Los Aldeanos, Danay Suarez and Silvito El Li
TTITLE4=bre
TTITLE5=Oresteslude
TTITLE6=Agita feat. El Micha and Osdalgia
TTITLE7=Vamos Al Mar feat. Melvis Santa and Francis Del Rio
TTITLE8=Saxolude
TTITLE9=Sobreviviente feat. El Tipo Este
TTITLE10=Cuando Ya No Este feat. Danay Suarez
TTITLE11=La Tormenta feat. El Tipo Este and Arema Arega
TTITLE12=Espera Mi Gente feat. Danay Suarez and Ogguere
TTITLE13=Muestrame Lude
EXTD=
EXTT0=
EXTT1=
EXTT2=
EXTT3=
EXTT4=
EXTT5=
EXTT6=
EXTT7=
EXTT8=
EXTT9=
EXTT10=
EXTT11=
EXTT12=
EXTT13=
PLAYORDER=
